<svg width="40" height="41" viewBox="0 0 40 41" fill="none" xmlns="http://www.w3.org/2000/svg">
<path d="M20 0.498047C8.99999 0.498047 0 9.51411 0 20.6185C0 30.6587 7.31999 38.992 16.88 40.498V26.4418H11.8V20.6185H16.88V16.1808C16.88 11.1406 19.86 8.36953 24.44 8.36953C26.62 8.36953 28.9 8.75106 28.9 8.75106V13.7109H26.38C23.9 13.7109 23.12 15.2571 23.12 16.8434V20.6185H28.68L27.78 26.4418H23.12V40.498C27.8328 39.7507 32.1244 37.3364 35.2198 33.6909C38.3152 30.0454 40.0106 25.409 39.9999 20.6185C39.9999 9.51411 31 0.498047 20 0.498047Z" fill="white"/>
</svg>
