<svg width="36" height="38" viewBox="0 0 36 38" fill="none" xmlns="http://www.w3.org/2000/svg">
<path d="M32.0045 38H4.03597V34.2H32.0045V38ZM28.009 15.2C25.1722 15.2 22.5352 16.663 21.1168 19H20.018V9.5H26.0112V5.7H20.018V0H16.0225V5.7H10.0292V9.5H16.0225V19H14.9237C12.7262 15.371 7.8317 14.117 4.03597 16.226C0.180314 18.316 -1.11823 22.971 1.03935 26.6C2.51768 28.956 5.17469 30.4 8.03148 30.4H28.009C30.1283 30.4 32.1609 29.5993 33.6595 28.174C35.1581 26.7487 36 24.8156 36 22.8C36 20.7844 35.1581 18.8513 33.6595 17.426C32.1609 16.0007 30.1283 15.2 28.009 15.2Z" fill="#421193"/>
</svg>
