<svg width="44" height="44" viewBox="0 0 44 44" fill="none" xmlns="http://www.w3.org/2000/svg">
<path d="M36.667 25.666H7.33366V14.666H12.8337V18.3327H16.5003V14.666H27.5003V18.3327H31.167V14.666H36.667M36.667 34.8327H7.33366V31.166H36.667M16.5003 7.33268H27.5003V10.9993H16.5003M36.667 10.9993H31.167V7.33268C31.167 5.29768 29.5353 3.66602 27.5003 3.66602H16.5003C14.4653 3.66602 12.8337 5.29768 12.8337 7.33268V10.9993H7.33366C5.29866 10.9993 3.66699 12.631 3.66699 14.666V34.8327C3.66699 36.8677 5.29866 38.4993 7.33366 38.4993H36.667C38.702 38.4993 40.3337 36.8677 40.3337 34.8327V14.666C40.3337 12.631 38.702 10.9993 36.667 10.9993Z" fill="#A0A0A0"/>
</svg>
