<svg width="36" height="38" viewBox="0 0 36 38" fill="none" xmlns="http://www.w3.org/2000/svg">
<path d="M27 19V1.9C27 1.39609 26.8104 0.912816 26.4728 0.556497C26.1352 0.200178 25.6774 0 25.2 0H1.8C1.32261 0 0.864773 0.200178 0.527208 0.556497C0.189642 0.912816 0 1.39609 0 1.9V28.5L7.2 20.9H25.2C25.6774 20.9 26.1352 20.6998 26.4728 20.3435C26.8104 19.9872 27 19.5039 27 19ZM34.2 7.6H30.6V24.7H7.2V28.5C7.2 29.0039 7.38964 29.4872 7.72721 29.8435C8.06477 30.1998 8.52261 30.4 9 30.4H28.8L36 38V9.5C36 8.99609 35.8104 8.51282 35.4728 8.1565C35.1352 7.80018 34.6774 7.6 34.2 7.6Z" fill="#A0A0A0"/>
</svg>
