<svg width="8" height="11" viewBox="0 0 8 11" fill="none" xmlns="http://www.w3.org/2000/svg">
<path d="M4 2.44629C4.37888 2.44629 4.74224 2.58947 5.01015 2.84434C5.27806 3.09922 5.42857 3.44489 5.42857 3.80534C5.42857 3.98381 5.39162 4.16054 5.31983 4.32542C5.24804 4.49031 5.14281 4.64013 5.01015 4.76633C4.8775 4.89253 4.72001 4.99264 4.54669 5.06093C4.37337 5.12923 4.1876 5.16439 4 5.16439C3.62112 5.16439 3.25776 5.0212 2.98985 4.76633C2.72194 4.51146 2.57143 4.16578 2.57143 3.80534C2.57143 3.44489 2.72194 3.09922 2.98985 2.84434C3.25776 2.58947 3.62112 2.44629 4 2.44629ZM4 0C5.06087 0 6.07828 0.400918 6.82843 1.11456C7.57857 1.8282 8 2.7961 8 3.80534C8 6.65934 4 10.8724 4 10.8724C4 10.8724 0 6.65934 0 3.80534C0 2.7961 0.421427 1.8282 1.17157 1.11456C1.92172 0.400918 2.93913 0 4 0ZM4 1.08724C3.24224 1.08724 2.51551 1.37361 1.97969 1.88335C1.44388 2.39309 1.14286 3.08445 1.14286 3.80534C1.14286 4.34896 1.14286 5.4362 4 9.08388C6.85714 5.4362 6.85714 4.34896 6.85714 3.80534C6.85714 3.08445 6.55612 2.39309 6.02031 1.88335C5.48449 1.37361 4.75776 1.08724 4 1.08724Z" fill="#707070"/>
</svg>
