<svg width="221" height="110" viewBox="0 0 221 110" fill="none" xmlns="http://www.w3.org/2000/svg">
<path d="M4.80426 17.9371C-0.0289932 12.5997 -0.236654 10.3356 3.50291 8.34883C6.83256 6.57779 9.72035 4.32437 13.4399 2.99974C15.4587 2.27703 18.8155 3.0351 21.3411 5.73185C21.725 4.04119 21.9676 2.31087 22.5439 0.788603C22.7479 0.243442 23.644 -0.0383879 24.4663 0.00490277C29.3422 0.298718 34.4048 0.91782 39.1804 1.03511C42.3696 1.11861 45.072 0.387726 48.1863 0.315641C51.4117 0.239536 54.8821 0.54152 58.203 0.619197C59.8481 0.65939 61.4128 0.567639 63.2296 0.91129C66.5169 1.13675 69.8117 1.37314 73.0915 1.58768C73.7439 1.62859 74.4216 1.33705 74.9918 1.65169C82.7508 5.93728 89.9639 6.18125 97.5117 10.0278C101.159 11.8899 105.442 14.3968 107.363 18.5662C108.028 20.0079 109.883 21.5936 111.086 23.1384C112.049 24.3742 113.396 25.8136 113.621 26.8539C115.192 34.2403 116.632 41.5861 117.831 48.8431C118.057 50.2308 117.015 51.157 116.591 52.3182C114.617 57.6539 114.86 63.912 117.649 71.2314C122.81 72.6993 126.568 70.3227 132.061 74.565C134.598 73.4142 136.813 71.9153 139.691 71.25C142.822 70.5276 146.71 70.758 150.041 70.2613C153.34 69.7732 155.924 68.1085 159.575 68.3656C165.515 68.7856 168.236 65.7649 172.736 64.7132C175.595 64.0438 179.179 64.2835 182.375 64.0305C183.436 63.9484 184.309 63.5934 185.579 63.2958C184.482 62.5643 184.089 62.2225 183.993 62.2483C179.881 63.3121 174.087 59.2934 169.371 58.69C166.711 58.3512 158.712 51.7233 157.314 49.1414C155.581 45.9577 156.513 44.8095 160.282 45.9599C164.698 47.308 169.18 48.94 173.602 50.305C175.025 50.7471 176.5 50.9646 177.673 50.8726C179.926 50.7085 181.914 50.7417 184.984 52.9385C186.097 53.7324 188.31 53.566 189.519 53.2334C191.09 52.8052 192.026 52.4792 194.735 54.3256C197.053 55.9053 199.977 56.1396 202.623 57.3775C205.741 58.8344 209.294 60.363 211.774 62.554C213.227 63.8393 213.198 66.5703 213.422 68.4969C213.875 72.2861 210.851 74.5226 213.924 79.5751C214.924 81.2189 214.587 82.9228 214.64 84.4996C214.867 90.9618 221.658 99.2026 220.783 105.304C220.534 107.018 219.291 108.211 218.505 109.642C216.13 107.957 212.97 106.423 211.51 104.553C205.239 96.5386 199.61 88.3923 198.69 80.7457C198.358 78.0117 198.775 75.5593 198.849 72.9807C198.337 72.4987 197.816 72.0118 197.304 71.5298C195.406 71.8537 193.332 71.9788 191.648 72.5503C188.633 73.5579 187.287 76.5268 182.096 74.969C181.345 74.7456 180.699 75.4283 180.269 75.9064C178.037 78.3627 173.43 77.5469 169.372 77.5402C168.24 77.5358 167.61 78.3213 166.617 78.5885C162.336 79.7367 158.602 81.92 153.51 81.6047C149.379 81.3437 147.645 84.6075 142.158 82.062C141.559 81.7847 140.871 82.2972 140.331 82.5593C137.988 83.6929 135.401 84.1819 131.329 82.8613C128.482 81.9366 125.737 81.8834 123.173 81.8258C119.064 81.7308 115.994 80.1538 111.962 76.0085C108.094 72.0283 105.364 68.1158 104.168 64.0214C103.733 62.5362 102.625 60.8846 101.984 59.3365C101.575 58.353 101.176 57.2876 101.237 56.4886C101.558 51.9418 102.397 47.6273 102.343 42.9224C102.278 37.3785 101.522 31.5248 100.985 25.7677C100.61 21.7225 97.706 19.3257 93.0168 18.5636C89.914 18.0554 86.419 16.846 83.0573 15.4917C77.8766 13.4059 73.5054 12.523 70.4443 14.392C70.0005 14.6686 69.1555 14.946 68.5724 14.644C61.0722 10.7643 56.6348 12.7779 51.2539 12.9863C49.1897 13.07 46.9244 12.847 44.7195 12.7114C40.6086 12.4486 36.4764 12.1471 32.3579 11.8733C31.9826 11.8485 31.6006 11.8533 31.302 11.9317C27.7734 12.8572 24.2914 13.8423 20.6922 14.6813C20.1632 14.8033 18.8276 15.7843 18.3154 13.4486C17.4976 13.3412 15.9759 12.8904 15.9537 13.1646C15.6072 18.3103 10.58 18.418 4.7776 17.9221L4.80426 17.9371Z" fill="#6C5CEF"/>
</svg>
