<svg width="11" height="10" viewBox="0 0 11 10" fill="none" xmlns="http://www.w3.org/2000/svg">
<path d="M9.9 3.4947V1.39788C9.9 1.02714 9.78411 0.671582 9.57782 0.409429C9.37153 0.147276 9.09174 0 8.8 0H2.2C1.90826 0 1.62847 0.147276 1.42218 0.409429C1.21589 0.671582 1.1 1.02714 1.1 1.39788V3.4947C0.808262 3.4947 0.528473 3.64197 0.322183 3.90413C0.115892 4.16628 0 4.52184 0 4.89258V8.38727H0.7315L1.1 9.78515H1.65L2.0185 8.38727H8.9815L9.35 9.78515H9.9L10.2685 8.38727H11V4.89258C11 4.52184 10.8841 4.16628 10.6778 3.90413C10.4715 3.64197 10.1917 3.4947 9.9 3.4947ZM6.05 1.39788H8.8V3.4947H6.05M2.2 1.39788H4.95V3.4947H2.2M9.9 6.98939H1.1V4.89258H9.9V6.98939Z" fill="#707070"/>
</svg>
