<svg width="9" height="12" viewBox="0 0 9 12" fill="none" xmlns="http://www.w3.org/2000/svg">
<path d="M8 1.08724V10.8724H5V8.96972H4V10.8724H1V1.08724H8ZM6 3.26172H7V2.17448H6V3.26172ZM4 3.26172H5V2.17448H4V3.26172ZM2 3.26172H3V2.17448H2V3.26172ZM6 5.4362H7V4.34896H6V5.4362ZM4 5.4362H5V4.34896H4V5.4362ZM2 5.4362H3V4.34896H2V5.4362ZM6 7.61067H7V6.52344H6V7.61067ZM4 7.61067H5V6.52344H4V7.61067ZM2 7.61067H3V6.52344H2V7.61067ZM6 9.78515H7V8.69791H6V9.78515ZM2 9.78515H3V8.69791H2V9.78515ZM9 0H0V11.9596H9V0Z" fill="#707070"/>
</svg>
