<svg width="41" height="38" viewBox="0 0 41 38" fill="none" xmlns="http://www.w3.org/2000/svg">
<path d="M40.498 4.36466C39.0258 5.12642 37.4388 5.62701 35.7944 5.86642C37.477 4.7129 38.7772 2.88466 39.3891 0.686424C37.8021 1.77466 36.043 2.53642 34.1883 2.97172C32.6778 1.09995 30.5554 0.0117188 28.1462 0.0117188C23.6529 0.0117188 19.9818 4.19054 19.9818 9.34878C19.9818 10.0888 20.0583 10.807 20.1921 11.4817C13.3852 11.09 7.32405 7.36819 3.28963 1.73113C2.58218 3.10231 2.18065 4.7129 2.18065 6.41054C2.18065 9.65348 3.61468 12.5264 5.83266 14.1588C4.4751 14.1588 3.21315 13.7235 2.10417 13.0705C2.10417 13.0705 2.10417 13.0705 2.10417 13.1358C2.10417 17.6629 4.93399 21.45 8.6816 22.2988C7.99327 22.5164 7.26669 22.6252 6.52099 22.6252C6.00474 22.6252 5.48849 22.56 4.99136 22.4511C6.02386 26.1294 9.02577 28.8717 12.6395 28.937C9.84795 31.4617 6.31067 32.9417 2.44833 32.9417C1.79824 32.9417 1.14814 32.8982 0.498047 32.8111C4.13093 35.4664 8.45216 37.0117 13.0793 37.0117C28.1462 37.0117 36.4254 22.7776 36.4254 10.437C36.4254 10.0235 36.4254 9.63172 36.4063 9.21819C38.0124 7.91231 39.3891 6.25819 40.498 4.36466Z" fill="white"/>
</svg>
